<?xml version="1.0" encoding="iso-8859-1"?>
<!-- Uploaded to: SVG Repo, www.svgrepo.com, Generator: SVG Repo Mixer Tools -->
<svg version="1.1" id="Layer_1" xmlns="http://www.w3.org/2000/svg" xmlns:xlink="http://www.w3.org/1999/xlink" 
	 viewBox="0 0 512.001 512.001" xml:space="preserve">
<path style="fill:#A4A9AD;" d="M333.888,110.195h-44.059V66.137c0-6.002-4.91-10.913-10.912-10.913h-45.832
	c-6.002,0-10.913,4.911-10.913,10.913v44.058h-44.059c-6.002,0-10.913,4.911-10.913,10.913v45.832
	c0,6.002,4.911,10.913,10.913,10.913h44.059v153.32h67.657v-153.32h44.059c6.002,0,10.913-4.911,10.913-10.913v-45.832
	C344.8,115.106,339.889,110.195,333.888,110.195z"/>
<path style="fill:#D1D3D3;" d="M289.828,135.769h-25.573v-25.574c0-4.56-3.695-8.255-8.255-8.255c-4.559,0-8.255,3.695-8.255,8.255
	v25.574h-25.574c-4.559,0-8.255,3.695-8.255,8.255s3.696,8.255,8.255,8.255h25.574v61.312c0,4.56,3.696,8.255,8.255,8.255
	c4.56,0,8.255-3.695,8.255-8.255v-61.312h25.573c4.56,0,8.255-3.695,8.255-8.255S294.388,135.769,289.828,135.769z"/>
<rect x="222.173" y="294.616" style="opacity:0.1;enable-background:new    ;" width="67.656" height="36.552"/>
<circle style="opacity:0.1;enable-background:new    ;" cx="190.794" cy="154.66" r="4.638"/>
<circle style="opacity:0.1;enable-background:new    ;" cx="244.802" cy="74.832" r="4.638"/>
<circle style="opacity:0.1;enable-background:new    ;" cx="321.185" cy="150.027" r="4.637"/>
<circle style="opacity:0.1;enable-background:new    ;" cx="240.168" cy="259.693" r="4.638"/>
<circle style="opacity:0.1;enable-background:new    ;" cx="264.371" cy="218.232" r="4.638"/>
<circle style="opacity:0.1;enable-background:new    ;" cx="244.802" cy="177.718" r="4.638"/>
<circle style="opacity:0.1;enable-background:new    ;" cx="277.006" cy="294.616" r="4.638"/>
<circle style="opacity:0.1;enable-background:new    ;" cx="259.726" cy="135.652" r="4.638"/>
<circle style="opacity:0.1;enable-background:new    ;" cx="304.015" cy="122.203" r="4.638"/>
<path style="fill:#D1D3D3;" d="M382.555,379.37v-49.91c0-9.003-7.366-16.369-16.37-16.369H145.814
	c-9.003,0-16.369,7.365-16.369,16.369v49.91H382.555z"/>
<circle style="opacity:0.1;enable-background:new    ;" cx="164.698" cy="331.168" r="4.638"/>
<circle style="opacity:0.1;enable-background:new    ;" cx="222.173" cy="350.869" r="4.638"/>
<circle style="opacity:0.1;enable-background:new    ;" cx="277.457" cy="331.168" r="4.638"/>
<circle style="opacity:0.1;enable-background:new    ;" cx="353.258" cy="343.726" r="4.638"/>
<rect x="129.445" y="352.454" style="opacity:0.1;enable-background:new    ;" width="253.111" height="26.918"/>
<path style="fill:#A4A9AD;" d="M492.665,434.661V384.86c0-9.003-7.365-16.369-16.369-16.369H35.704
	c-9.003,0-16.369,7.365-16.369,16.369v49.801L492.665,434.661L492.665,434.661z"/>
<circle style="opacity:0.1;enable-background:new    ;" cx="56.572" cy="408.465" r="4.638"/>
<circle style="opacity:0.1;enable-background:new    ;" cx="108.324" cy="383.36" r="4.638"/>
<circle style="opacity:0.1;enable-background:new    ;" cx="222.173" cy="413.11" r="4.638"/>
<circle style="opacity:0.1;enable-background:new    ;" cx="344.805" cy="397.558" r="4.637"/>
<circle style="opacity:0.1;enable-background:new    ;" cx="469.517" cy="417.743" r="4.638"/>
<circle style="opacity:0.1;enable-background:new    ;" cx="445.688" cy="383.36" r="4.637"/>
<path style="fill:#D1D3D3;" d="M70.954,368.491c20.64,0,37.372-16.732,37.372-37.372c0-32.429-10.688-154.944-27.071-187.534
	c-1.924-3.762-4.835-6.706-10.301-6.706c-5.467,0-8.377,2.944-10.301,6.706C44.271,176.174,33.582,298.691,33.582,331.12
	C33.582,351.76,50.314,368.491,70.954,368.491z"/>
<circle style="opacity:0.1;enable-background:new    ;" cx="51.939" cy="346.225" r="4.638"/>
<circle style="opacity:0.1;enable-background:new    ;" cx="91.22" cy="248.048" r="4.638"/>
<circle style="opacity:0.1;enable-background:new    ;" cx="75.591" cy="299.25" r="4.638"/>
<circle style="opacity:0.1;enable-background:new    ;" cx="70.957" cy="182.352" r="4.638"/>
<path style="fill:#D1D3D3;" d="M441.048,368.491c-20.64,0-37.373-16.732-37.373-37.372c0-32.429,10.688-154.944,27.072-187.534
	c1.924-3.762,4.834-6.706,10.301-6.706c5.466,0,8.376,2.944,10.3,6.706c16.383,32.588,27.071,155.105,27.071,187.534
	C478.419,351.76,461.687,368.491,441.048,368.491z"/>
<circle style="opacity:0.1;enable-background:new    ;" cx="445.688" cy="326.534" r="4.637"/>
<circle style="opacity:0.1;enable-background:new    ;" cx="450.322" cy="193.193" r="4.637"/>
<circle style="opacity:0.1;enable-background:new    ;" cx="429.718" cy="252.682" r="4.638"/>
<rect x="19.336" y="410.655" style="opacity:0.1;enable-background:new    ;" width="473.325" height="24.008"/>
<path style="fill:#00AD68;" d="M512,451.393c0,2.962-2.422,5.384-5.383,5.384H5.383c-2.961,0-5.383-2.421-5.383-5.384V432.13
	c0-2.962,2.422-5.382,5.383-5.382h501.235c2.96,0,5.383,2.42,5.383,5.382v19.263H512z"/>
</svg>